<?xml version="1.0" encoding="UTF-8" standalone="no"?>
<svg
   xmlns:dc="http://purl.org/dc/elements/1.1/"
   xmlns:cc="http://creativecommons.org/ns#"
   xmlns:rdf="http://www.w3.org/1999/02/22-rdf-syntax-ns#"
   xmlns:svg="http://www.w3.org/2000/svg"
   xmlns="http://www.w3.org/2000/svg"
   xmlns:sodipodi="http://sodipodi.sourceforge.net/DTD/sodipodi-0.dtd"
   xmlns:inkscape="http://www.inkscape.org/namespaces/inkscape"
   width="48"
   height="48"
   viewBox="0 0 12.7 12.7"
   version="1.1"
   id="svg499"
   inkscape:version="1.0 (4035a4fb49, 2020-05-01)"
   sodipodi:docname="telapp.svg">
  <defs
     id="defs493" />
  <sodipodi:namedview
     id="base"
     pagecolor="#ffffff"
     bordercolor="#666666"
     borderopacity="1.0"
     inkscape:pageopacity="0.0"
     inkscape:pageshadow="2"
     inkscape:zoom="2.8616351"
     inkscape:cx="137.03407"
     inkscape:cy="67.84286"
     inkscape:document-units="mm"
     inkscape:current-layer="g3455"
     inkscape:document-rotation="0"
     showgrid="false"
     showguides="false"
     inkscape:pagecheckerboard="true"
     inkscape:window-width="1366"
     inkscape:window-height="705"
     inkscape:window-x="-8"
     inkscape:window-y="-8"
     inkscape:window-maximized="1"
     units="px" />
  <metadata
     id="metadata496">
    <rdf:RDF>
      <cc:Work
         rdf:about="">
        <dc:format>image/svg+xml</dc:format>
        <dc:type
           rdf:resource="http://purl.org/dc/dcmitype/StillImage" />
        <dc:title></dc:title>
      </cc:Work>
    </rdf:RDF>
  </metadata>
  <g
     inkscape:label="Capa 1"
     inkscape:groupmode="layer"
     id="layer1">
    <g
       id="g529"
       stroke="none"
       fill="#000000"
       transform="matrix(0.00955535,0,0,-0.00955535,40.862827,194.84138)">
      <g
         id="g3464"
         transform="matrix(0.31683604,0,0,0.31683604,8090.8665,-4607.8766)">
        <g
           id="g3473"
           transform="matrix(0.40031815,0,0,0.40031815,-39065.167,74494.211)">
          <path
             id="path523"
             d="m 3730.9016,9962.6939 c -55,-15 -679,-379.0007 -716,-418.0008 -85,-87.0001 -103,-206.0003 -47,-315.0005 67,-129 1153,-2002 1181,-2035 57,-68 178,-105 267,-81 46,12 662,365 715,409 71,59 108,190 78,277 -8,22 -276,495 -596,1050 -471,817.0007 -591,1018.0011 -628,1052.0012 -68,64.0001 -164,87.0001 -254,61.0001 z"
             style="fill:#2ca02c" />
          <g
             id="g3455">
            <path
               d="M 7480.1044,8883.9679 A 2003.8474,2003.8474 0 0 1 5479.716,6880.1129 2003.8474,2003.8474 0 0 1 5683.3138,6000.2441 v -945.886 h 974.4652 a 2003.8474,2003.8474 0 0 1 825.7919,-178.1 2003.8474,2003.8474 0 0 1 2003.8553,2003.8548 2003.8474,2003.8474 0 0 1 -2003.8553,2003.855 2003.8474,2003.8474 0 0 1 -3.4665,0 z"
               style="opacity:0.98;fill:none;fill-opacity:1;stroke:#000000;stroke-width:39.4407;stroke-opacity:0.91"
               id="path3443" />
            <path
               style="fill:#2ca02c"
               d="m 2646.8437,9108.7704 c -216,-132 -322,-210 -434,-317 -341,-326 -432,-664 -362,-1346 165,-1616 1352,-3892 2728,-5232 360,-351 731,-631 1033,-779 191,-94 332,-132 523,-141 257,-12 504,61 877,261 113,60 151,85 147,96 -5,13 -1156,2013 -1190,2068 l -15,22 -39,-20 c -69,-35 -183,-69 -275,-80 -215,-27 -466,49 -712,216 -587,397 -1121,1268 -1263,2059 -81,448 -20,809 175,1038 33,39 144,132 166,139 7,2 -220,406 -591,1049 -331,574 -605,1047 -609,1052 -4,4 -75,-35 -159,-85 z"
               id="path525" />
            <path
               style="fill:#2ca02c"
               d="m 6890.9016,4499.3135 c -55,-8 -74,-18 -428,-222 -156,-90 -299,-179 -319,-198 -72,-71 -101,-183 -71,-271 17,-50 1155,-2025 1197,-2078 71,-90 212,-117 326,-62 86,41 614,347 655,380 56,45 90,120 90,202 0,37 -5,81 -12,96 -34,80 -1175,2043 -1206,2075 -61,64 -141,91 -232,78 z"
               id="path527" />
            <text
               transform="scale(1,-1)"
               id="text544"
               y="-6094.0796"
               x="5941.9038"
               style="font-style:normal;font-weight:normal;font-size:1107.58px;line-height:1.25;font-family:sans-serif;fill:#000000;fill-opacity:1;stroke:none;stroke-width:27.6895"
               xml:space="preserve"><tspan
                 dy="0"
                 style="font-style:normal;font-variant:normal;font-weight:normal;font-stretch:normal;font-size:1772.13px;font-family:Elephant;-inkscape-font-specification:Elephant;fill:#ffffff;stroke-width:27.6895"
                 y="-6094.0796"
                 x="5941.9038"
                 id="tspan542"
                 sodipodi:role="line">911</tspan></text>
          </g>
        </g>
      </g>
      <circle
         id="path3375"
         style="fill:#e6e6e6;stroke:#000000;stroke-width:27.6895"
         cx="10372.231"
         cy="-15165.53"
         r="5.9023118"
         transform="scale(1,-1)" />
      <circle
         id="path3377"
         style="fill:#e6e6e6;stroke:#000000;stroke-width:27.6895"
         cx="10372.231"
         cy="-14093.677"
         r="5.9023118"
         transform="scale(1,-1)" />
      <circle
         id="path3379"
         style="fill:#e6e6e6;stroke:#000000;stroke-width:27.6895"
         cx="11488.745"
         cy="-14093.677"
         r="5.9023118"
         transform="scale(1,-1)" />
      <circle
         id="path3381"
         style="fill:#e6e6e6;stroke:#000000;stroke-width:27.6895"
         cx="10372.231"
         cy="-15120.869"
         r="5.9023118"
         transform="scale(1,-1)" />
    </g>
  </g>
</svg>
